HIERARCHY
ROOT joint_0
{
	OFFSET 0.000000 0.000000 0.000000
	CHANNELS 6 Xposition Yposition Zposition Zrotation Yrotation Xrotation 
	JOINT joint_1
	{
		OFFSET 6.590088 -1.122192 114.019043
		CHANNELS 3 Zrotation Yrotation Xrotation
		JOINT joint_2
		{
			OFFSET -5.956055 -0.820435 104.151001
			CHANNELS 3 Zrotation Yrotation Xrotation
			JOINT joint_3
			{
				OFFSET -7.343506 -1.103027 103.942993
				CHANNELS 3 Zrotation Yrotation Xrotation
				JOINT joint_4
				{
					OFFSET 3.109131 -2.857056 147.715942
					CHANNELS 3 Zrotation Yrotation Xrotation
					JOINT joint_5
					{
						OFFSET 28.592285 -2.852295 87.703979
						CHANNELS 3 Zrotation Yrotation Xrotation
						End Site
						{
							OFFSET 0.000000 0.000000 0.000000
						}
					}
				}
				JOINT joint_6
				{
					OFFSET -0.332520 -33.687378 82.401978
					CHANNELS 3 Zrotation Yrotation Xrotation
					JOINT joint_7
					{
						OFFSET -7.397461 -168.719177 -22.750977
						CHANNELS 3 Zrotation Yrotation Xrotation
						JOINT joint_8
						{
							OFFSET 17.065918 -24.903137 -272.721069
							CHANNELS 3 Zrotation Yrotation Xrotation
							JOINT joint_9
							{
								OFFSET 33.311279 -37.031616 -278.192993
								CHANNELS 3 Zrotation Yrotation Xrotation
								End Site
								{
									OFFSET 0.000000 0.000000 0.000000
								}
							}
						}
					}
				}
				JOINT joint_10
				{
					OFFSET 3.914307 30.461670 83.552979
					CHANNELS 3 Zrotation Yrotation Xrotation
					JOINT joint_11
					{
						OFFSET 15.543701 166.845459 -30.963013
						CHANNELS 3 Zrotation Yrotation Xrotation
						JOINT joint_12
						{
							OFFSET 35.734863 35.017700 -269.786011
							CHANNELS 3 Zrotation Yrotation Xrotation
							JOINT joint_13
							{
								OFFSET 70.506592 13.977783 -273.320007
								CHANNELS 3 Zrotation Yrotation Xrotation
								End Site
								{
									OFFSET 0.000000 0.000000 0.000000
								}
							}
						}
					}
				}
			}
		}
	}
	JOINT joint_14
	{
		OFFSET -0.314697 -95.093994 -116.004028
		CHANNELS 3 Zrotation Yrotation Xrotation
		JOINT joint_15
		{
			OFFSET -22.490723 2.017883 -455.510986
			CHANNELS 3 Zrotation Yrotation Xrotation
			JOINT joint_16
			{
				OFFSET -46.427490 7.144104 -496.360985
				CHANNELS 3 Zrotation Yrotation Xrotation
				JOINT joint_17
				{
					OFFSET 209.055420 -37.122803 -85.191002
					CHANNELS 3 Zrotation Yrotation Xrotation
					End Site
					{
						OFFSET 0.000000 0.000000 0.000000
					}
				}
			}
		}
	}
	JOINT joint_18
	{
		OFFSET 5.652832 94.642578 -116.244019
		CHANNELS 3 Zrotation Yrotation Xrotation
		JOINT joint_19
		{
			OFFSET -12.379883 -7.332642 -455.843994
			CHANNELS 3 Zrotation Yrotation Xrotation
			JOINT joint_20
			{
				OFFSET -45.227051 -8.172241 -496.457985
				CHANNELS 3 Zrotation Yrotation Xrotation
				JOINT joint_21
				{
					OFFSET 210.522949 -11.530396 -88.809004
					CHANNELS 3 Zrotation Yrotation Xrotation
					End Site
					{
						OFFSET 0.000000 0.000000 0.000000
					}
				}
			}
		}
	}
}
MOTION
Frames: 14
Frame Time: 0.016667
-2627.449219 946.485229 1214.062012 6.879695 2.766187 -0.024510 -0.985620 5.930058 0.949666 -0.237352 -1.076636 -0.279146 0.029754 1.168749 0.112396 0.199664 -3.243088 -0.197065 0.000000 0.000000 0.000000 -3.234465 7.366261 -0.045373 -4.339278 7.598261 -16.533827 -177.063288 -78.405202 -159.984079 0.000000 0.000000 0.000000 4.713038 0.120697 4.968101 10.794795 -0.523484 8.289261 172.280922 -78.756363 146.460488 0.000000 0.000000 0.000000 2.834317 -5.985943 -3.385271 2.339280 22.453193 0.517963 3.300165 8.374420 2.783784 0.000000 0.000000 0.000000 0.425905 -27.757193 3.307334 -0.754932 23.078739 0.898254 0.134650 13.852705 0.794304 0.000000 0.000000 0.000000 
-2615.148926 947.978760 1208.448975 6.752581 2.962645 -0.433944 -1.014174 5.939464 1.200080 -0.251051 -1.028289 -0.313591 0.049207 1.213560 0.201043 0.210390 -3.165439 -0.168908 0.000000 0.000000 0.000000 -3.067272 8.218136 -0.123367 -4.800796 8.207906 -17.810112 -177.728087 -75.536272 -159.818010 0.000000 0.000000 0.000000 4.919185 -0.103943 5.039722 11.789206 -0.534887 9.052345 172.587582 -75.503217 145.084585 0.000000 0.000000 0.000000 3.358612 -6.360768 -3.231820 2.833548 24.165305 0.951157 4.197187 7.188480 2.894024 0.000000 0.000000 0.000000 -0.703318 -27.890875 4.305291 -2.006717 17.153562 1.700788 -1.805259 18.784423 0.265413 0.000000 0.000000 0.000000 
-2603.093018 949.657776 1201.558960 6.077094 2.989570 -1.058815 -0.914661 6.070880 1.622822 -0.072834 -1.039769 -0.414880 0.301044 1.260480 0.300707 0.200681 -2.853942 -0.071064 0.000000 0.000000 0.000000 -2.719233 8.877742 -0.313919 -5.470905 8.596857 -19.130531 -178.558226 -72.520923 -159.300400 0.000000 0.000000 0.000000 5.128750 -0.695729 5.154273 13.092259 -0.649164 9.746269 172.976336 -71.834603 143.044439 0.000000 0.000000 0.000000 4.197385 -6.773567 -2.959771 3.604415 26.115448 1.500229 5.473938 5.887712 3.116829 0.000000 0.000000 0.000000 -2.622166 -27.538129 6.052248 -4.470962 10.886364 2.341239 -4.654344 25.328493 -0.592224 0.000000 0.000000 0.000000 
-2590.991943 952.306274 1193.386963 4.941843 2.610243 -1.857373 -0.732412 6.590266 2.390713 0.252150 -1.255729 -0.674606 0.767765 1.284317 0.372486 0.220372 -2.518788 -0.053742 0.000000 0.000000 0.000000 -2.453139 9.540861 -0.546027 -6.031587 8.851309 -20.310652 -179.285665 -69.491277 -159.322840 0.000000 0.000000 0.000000 5.297796 -1.392934 5.242279 14.337157 -0.700459 10.004816 173.311640 -68.087116 141.586561 0.000000 0.000000 0.000000 5.322611 -6.781755 -2.644731 4.659195 28.042632 2.167543 7.154445 4.306235 3.428888 0.000000 0.000000 0.000000 -4.225329 -26.773510 7.834608 -6.760292 5.981974 3.285704 -6.852369 30.578146 -1.308672 0.000000 0.000000 0.000000 
-2578.564697 956.561279 1183.173950 3.797907 1.966578 -2.514749 -0.531847 6.979398 3.127209 0.567935 -1.361119 -0.879399 1.217399 1.253873 0.420688 0.299892 -2.252718 -0.191845 0.000000 0.000000 0.000000 -2.390598 10.316629 -0.935964 -6.370997 8.956185 -21.203464 -179.796913 -66.308259 -160.326489 0.000000 0.000000 0.000000 5.425832 -2.102039 5.265895 15.241971 -0.568270 9.565584 173.434025 -64.375324 141.360240 0.000000 0.000000 0.000000 6.757263 -6.391347 -2.767278 6.017821 29.937973 3.147575 9.428992 1.995060 3.813783 0.000000 0.000000 0.000000 -4.678251 -26.371246 8.635669 -7.606650 3.422649 4.345677 -7.492543 33.329463 -1.496545 0.000000 0.000000 0.000000 
-2566.092529 961.785828 1171.678955 2.835090 1.278862 -2.957597 -0.358104 6.993815 3.589653 0.786539 -1.260265 -0.920466 1.521601 1.187294 0.463272 0.401535 -1.969302 -0.389484 0.000000 0.000000 0.000000 -2.402919 11.087588 -1.450723 -6.608093 8.842248 -21.842547 179.862180 -63.261298 -161.844280 0.000000 0.000000 0.000000 5.514581 -2.914131 5.282599 15.885299 -0.292090 8.650050 173.426244 -60.919625 141.793221 0.000000 0.000000 0.000000 8.239872 -5.837148 -3.312161 7.417198 31.731128 4.378198 12.000010 -0.727339 4.218930 0.000000 0.000000 0.000000 -4.471645 -26.420816 8.639554 -7.507569 2.470939 5.263129 -7.236210 34.415300 -1.359658 0.000000 0.000000 0.000000 
-2554.135010 966.862000 1161.181030 2.142030 0.680109 -3.326473 -0.281065 6.785019 3.865858 0.828928 -1.153257 -0.909335 1.616610 1.132842 0.503971 0.471632 -1.603952 -0.536165 0.000000 0.000000 0.000000 -2.382474 11.729350 -1.775786 -6.719592 8.584311 -22.343204 179.730036 -61.076277 -163.347407 0.000000 0.000000 0.000000 5.504709 -3.704696 5.318707 16.376119 0.018286 7.743448 173.461638 -58.279374 142.261071 0.000000 0.000000 0.000000 9.263036 -5.277604 -3.860213 8.380107 33.228675 5.567569 14.053299 -2.955851 4.519705 0.000000 0.000000 0.000000 -3.861592 -26.718938 8.329097 -6.759198 2.768387 5.858676 -6.418462 33.801602 -1.015974 0.000000 0.000000 0.000000 
-2542.612549 971.770630 1152.181030 1.799510 0.196842 -3.718270 -0.346382 6.309543 4.076418 0.594317 -1.123113 -0.934596 1.383574 1.112441 0.558107 0.490061 -1.070319 -0.601402 0.000000 0.000000 0.000000 -2.227895 12.253884 -1.714972 -6.623191 8.275969 -22.823387 179.832317 -59.985212 -164.693839 0.000000 0.000000 0.000000 5.312587 -4.349775 5.252262 16.896846 0.280679 7.194470 173.698434 -56.506281 142.456779 0.000000 0.000000 0.000000 9.634510 -4.709098 -4.312280 8.727572 34.403623 6.741596 15.211406 -4.412763 4.638885 0.000000 0.000000 0.000000 -2.828761 -27.065721 7.690638 -5.237046 4.475839 6.241920 -4.885857 30.544558 -0.455381 0.000000 0.000000 0.000000 
-2531.603760 976.529846 1144.178955 1.633782 -0.231512 -4.112198 -0.477484 5.679877 4.209604 0.235797 -1.108519 -0.967583 0.973021 1.082881 0.607262 0.470743 -0.449543 -0.597652 0.000000 0.000000 0.000000 -2.071422 12.628409 -1.494045 -6.364910 7.926733 -23.154513 -179.887400 -59.627458 -165.916272 0.000000 0.000000 0.000000 5.013601 -4.891262 5.101795 17.375193 0.452181 6.824401 174.012429 -55.398882 142.516113 0.000000 0.000000 0.000000 9.670638 -4.145798 -4.703829 8.745639 35.431323 7.863694 15.839898 -5.373872 4.660861 0.000000 0.000000 0.000000 -1.643957 -27.532428 6.942093 -3.431721 7.425965 6.470754 -3.033657 25.427957 0.095401 0.000000 0.000000 0.000000 
-2521.902100 980.074341 1137.949951 1.432500 -0.548039 -4.473126 -0.576548 5.159493 4.154991 0.011408 -1.056179 -0.943454 0.699173 1.033562 0.615923 0.418141 0.069523 -0.493712 0.000000 0.000000 0.000000 -2.119430 12.681908 -1.332225 -6.095908 7.546773 -23.177857 -179.555090 -59.724371 -166.770892 0.000000 0.000000 0.000000 4.783177 -5.408162 5.112102 17.652644 0.462100 6.332227 174.191528 -54.951324 142.402978 0.000000 0.000000 0.000000 9.628227 -3.872161 -4.841289 8.673883 36.533657 8.581261 16.207912 -5.833739 4.679644 0.000000 0.000000 0.000000 -0.803786 -28.504885 6.775344 -2.244042 10.993944 6.251029 -1.788631 21.020694 0.373015 0.000000 0.000000 0.000000 
-2514.465332 981.577087 1133.973999 1.100028 -0.606999 -4.838218 -0.605918 4.736370 3.816513 0.018952 -0.899039 -0.818268 0.690341 0.963905 0.575494 0.315449 0.462521 -0.231646 0.000000 0.000000 0.000000 -2.585124 12.127097 -1.270808 -5.790933 7.065084 -22.677973 -179.087535 -60.405031 -166.981765 0.000000 0.000000 0.000000 4.676092 -5.870278 5.553545 17.668379 0.263791 5.461290 174.183350 -55.182423 142.076814 0.000000 0.000000 0.000000 9.536436 -4.339232 -4.581549 8.524580 38.029877 8.750672 16.320546 -5.651411 4.715689 0.000000 0.000000 0.000000 -0.290829 -30.790005 7.613370 -1.842926 15.780484 5.098681 -1.449169 18.233510 0.345614 0.000000 0.000000 0.000000 
-2508.337158 981.865112 1131.770996 0.561061 -0.664098 -5.270619 -0.539597 4.628592 3.482399 0.210925 -0.830092 -0.732006 0.902601 0.890803 0.494772 0.184987 0.760380 0.109137 0.000000 0.000000 0.000000 -3.234890 11.297067 -1.192667 -5.457405 6.596972 -21.905069 -178.583980 -61.487645 -166.892034 0.000000 0.000000 0.000000 4.610248 -6.266140 6.185659 17.504566 -0.067787 4.431957 174.113239 -56.003824 141.543869 0.000000 0.000000 0.000000 9.397538 -5.039170 -3.909600 8.337478 39.591739 8.456457 16.121117 -4.979729 4.727554 0.000000 0.000000 0.000000 0.145849 -33.489805 9.118621 -1.861260 21.116323 3.391194 -1.591968 16.511896 0.177154 0.000000 0.000000 0.000000 
-2501.436768 982.350220 1130.678955 0.115806 -0.951559 -5.554226 -0.422434 4.850341 3.208388 0.444076 -0.903755 -0.705680 1.171797 0.857959 0.410075 0.089936 0.876856 0.362182 0.000000 0.000000 0.000000 -3.587407 10.913537 -1.063518 -5.321044 6.377763 -21.461315 -178.439485 -62.245360 -167.145114 0.000000 0.000000 0.000000 4.525560 -6.696941 6.514720 17.182911 -0.379796 3.587565 174.030509 -57.287772 140.863841 0.000000 0.000000 0.000000 9.241710 -5.015027 -3.168414 8.219363 40.472657 7.847315 15.771728 -4.378607 4.685760 0.000000 0.000000 0.000000 0.438810 -34.977639 10.290709 -1.957645 24.872010 2.083962 -1.760849 15.483395 0.042391 0.000000 0.000000 0.000000 
-2492.560791 983.651001 1130.745972 0.247156 -1.505724 -5.445007 -0.322877 5.188570 2.809445 0.564231 -0.996698 -0.682737 1.308871 0.927448 0.351185 0.051367 0.719014 0.487465 0.000000 0.000000 0.000000 -3.349234 11.345687 -0.859036 -5.583734 6.559504 -21.733350 -178.967574 -62.199250 -168.034340 0.000000 0.000000 0.000000 4.381684 -7.213751 6.268645 16.614245 -0.601592 3.099671 173.889660 -59.152594 140.074635 0.000000 0.000000 0.000000 8.928843 -3.690346 -2.591353 8.101713 40.198180 6.877663 15.219952 -4.189206 4.516457 0.000000 0.000000 0.000000 0.379807 -34.556525 10.403723 -1.954343 26.184853 1.637535 -1.737234 14.674297 0.011721 0.000000 0.000000 0.000000 
